{
	"asset":{
		"generator":"Khronos glTF Blender I/O v4.5.47",
		"version":"2.0"
	},
	"extensionsUsed":[
		"KHR_materials_specular"
	],
	"scene":0,
	"scenes":[
		{
			"name":"Scene",
			"nodes":[
				0
			]
		}
	],
	"nodes":[
		{
			"mesh":0,
			"name":"node_0.001"
		}
	],
	"materials":[
		{
			"doubleSided":true,
			"extensions":{
				"KHR_materials_specular":{
					"specularColorFactor":[
						2.0,
						2.0,
						2.0
					]
				}
			},
			"name":"Material.001",
			"normalTexture":{
				"index":0
			},
			"pbrMetallicRoughness":{
				"baseColorTexture":{
					"index":1
				},
				"metallicRoughnessTexture":{
					"index":2
				}
			}
		}
	],
	"meshes":[
		{
			"name":"node_0.001",
			"primitives":[
				{
					"attributes":{
						"POSITION":0,
						"NORMAL":1,
						"TEXCOORD_0":2
					},
					"indices":3,
					"material":0
				}
			]
		}
	],
	"textures":[
		{
			"sampler":0,
			"source":0
		},
		{
			"sampler":0,
			"source":1
		},
		{
			"sampler":0,
			"source":2
		}
	],
	"images":[
		{
			"mimeType":"image/png",
			"name":"texture_pbr_20250901_normal",
			"uri":"texture_pbr_20250901_normal.png"
		},
		{
			"mimeType":"image/png",
			"name":"texture_pbr_20250901",
			"uri":"texture_pbr_20250901.png"
		},
		{
			"mimeType":"image/png",
			"name":"texture_pbr_20250901_metallic-texture_pbr_20250901_roughness",
			"uri":"texture_pbr_20250901_metallic-texture_pbr_20250901_roughness.png"
		}
	],
	"accessors":[
		{
			"bufferView":0,
			"componentType":5126,
			"count":865666,
			"max":[
				0.4345569908618927,
				0.7509762048721313,
				0.14587871730327606
			],
			"min":[
				-0.4327619969844818,
				-0.20261792838573456,
				-0.2581603527069092
			],
			"type":"VEC3"
		},
		{
			"bufferView":1,
			"componentType":5126,
			"count":865666,
			"type":"VEC3"
		},
		{
			"bufferView":2,
			"componentType":5126,
			"count":865666,
			"type":"VEC2"
		},
		{
			"bufferView":3,
			"componentType":5125,
			"count":4499529,
			"type":"SCALAR"
		}
	],
	"bufferViews":[
		{
			"buffer":0,
			"byteLength":10387992,
			"byteOffset":0,
			"target":34962
		},
		{
			"buffer":0,
			"byteLength":10387992,
			"byteOffset":10387992,
			"target":34962
		},
		{
			"buffer":0,
			"byteLength":6925328,
			"byteOffset":20775984,
			"target":34962
		},
		{
			"buffer":0,
			"byteLength":17998116,
			"byteOffset":27701312,
			"target":34963
		}
	],
	"samplers":[
		{
			"magFilter":9729,
			"minFilter":9987
		}
	],
	"buffers":[
		{
			"byteLength":45699428,
			"uri":"mask.bin"
		}
	]
}
